# xmcd
# 
# Track frame offsets:
#     150
#     23602
#     50842
#     75130
#     105422
#     122777
#     140892
#     165897
#     183472
# 
# Disc length: 2939
# 
# Revision: 13
# Processed by: cddbd v1.5.2PL0 Copyright (c) Steve Scherf et al.
# Submitted via: fre:ac v1.0.31
# 
DISCID=690b7909
DTITLE=中島 みゆき - KANSUIGYO
DYEAR=1982
DGENRE=J-POP
TTITLE0=01-悪女
TTITLE1=02-傾斜
TTITLE2=03-鳥になって
TTITLE3=04-捨てるほどの愛でいいから
TTITLE4=05-B.G.M.
TTITLE5=06-家出
TTITLE6=07-時刻表
TTITLE7=08-砂の船
TTITLE8=09-歌姫
EXTD=YEAR: 1982\nアルバム名：寒水魚
EXTT0=
EXTT1=
EXTT2=
EXTT3=
EXTT4=
EXTT5=
EXTT6=
EXTT7=
EXTT8=
PLAYORDER=
